<svg xmlns="http://www.w3.org/2000/svg" viewBox="0 0 24 24" fill="white">
  <path d="M6 2h12v4.5c0 1.5-1 2.8-2.4 3.5 1.4 0.7 2.4 2 2.4 3.5V18c0 1.1-0.9 2-2 2H8c-1.1 0-2-0.9-2-2v-4.5c0-1.5 1-2.8 2.4-3.5C7 9.3 6 8 6 6.5V2z" stroke="white" stroke-width="1.5" fill="none"/>
  <line x1="6" y1="2" x2="18" y2="2" stroke="white" stroke-width="2" stroke-linecap="round"/>
  <line x1="6" y1="22" x2="18" y2="22" stroke="white" stroke-width="2" stroke-linecap="round"/>
  <path d="M12 12l-2 2h4l-2-2z" fill="white"/>
  <path d="M10 17h4v2h-4z" fill="white" opacity="0.7"/>
</svg>
